<svg id="Calque_2" data-name="Calque 2" xmlns="http://www.w3.org/2000/svg" viewBox="0 0 639.53 2136.66"><defs><style>.cls-1{fill:none;stroke:#000;stroke-miterlimit:10;}</style></defs><title>animation path</title><path class="cls-1" d="M83.64,65.87l2.56,49.52c3.55,68.89,42.45,131.44,103.33,163.87a136.66,136.66,0,0,0,21.87,9.53l414.27,133a134.08,134.08,0,0,1,52.51,31.56l.18.19a134,134,0,0,1-.1,192.11l-.14.13a133.87,133.87,0,0,1-52.34,31.44L174.23,822.34a134.07,134.07,0,0,0-52.33,31.43l0,0a134,134,0,0,0,0,192.24l0,0a134,134,0,0,0,52.33,31.42l451.66,145.2A133.84,133.84,0,0,1,678,1254l1.47,1.44a132,132,0,0,1,.09,189.51l-1.16,1.12a134.41,134.41,0,0,1-52.74,31.78L174.32,1622.67a133.87,133.87,0,0,0-52.5,31.56l-.18.18a134,134,0,0,0,.1,192.12l.13.12a134,134,0,0,0,52.36,31.44L592.37,2012.4a134.24,134.24,0,0,1,17.34,6.94c36,17.42,61.92,50.61,71.26,89.52l22.46,93.53" transform="translate(-80.61 -65.84)"/></svg>