<svg id="Calque_1" data-name="Calque 1" xmlns="http://www.w3.org/2000/svg" viewBox="0 0 201.78 186.68"><defs><style>.cls-1{fill:#222;}</style></defs><title>MOTORCYCLE MECANICS</title><path class="cls-1" d="M75.11,48.64c-3.09-1.84-8.32-1-10.64,1.55C62.84,52,61,53.65,59.31,55.39a5.79,5.79,0,0,1-3.06,1.8l-2.45-.74-4.06,4.27c.21.64.44,1.37.68,2.12a4.93,4.93,0,0,1-1.6,3c-3.52,3.48-7,7-10.51,10.5-3.8,3.8-7.56,7.63-11.39,11.4a9.29,9.29,0,0,0-.83,12.36c1,1.18,1.78,2.49,2.7,3.72.68.93,1.42,1.82,2,2.55l52-52.07A54.82,54.82,0,0,0,75.11,48.64Z" transform="translate(-24.11 -47.6)"/><path class="cls-1" d="M222.81,87.4c-9-8.74-17.79-17.71-26.67-26.58L185.62,50.33a8.86,8.86,0,0,0-11-1.46c-2.64,1.65-5.08,3.61-7.88,5.62L218.91,107c1.87-2.52,3.41-4.65,5-6.73A9.64,9.64,0,0,0,222.81,87.4Z" transform="translate(-24.11 -47.6)"/><path class="cls-1" d="M93.57,62.1,88.4,58.24,35.62,110.9c-.24.24-.46.51-.69.78a.42.42,0,0,0-.06.19,1.69,1.69,0,0,0,0,.28c.6.78,1.22,1.61,1.86,2.43l2,2.57C41.37,115.09,92.68,63.6,93.57,62.1Z" transform="translate(-24.11 -47.6)"/><path class="cls-1" d="M156.51,62.09c.09.36.09.53.17.62.31.37.64.74,1,1.08L211,117a.39.39,0,0,0,.2.06h.37l3.52-4.83L161.5,58.41Z" transform="translate(-24.11 -47.6)"/><path class="cls-1" d="M139,190.91h-6c-.06.83-.14,1.44-.14,2.05q0,10.88,0,21.76a8.66,8.66,0,0,0,0,1.25,2.86,2.86,0,0,0,2.81,2.6,3.16,3.16,0,0,0,3.55-3.43c0-7.6,0-15.2,0-22.8A8.18,8.18,0,0,0,139,190.91Z" transform="translate(-24.11 -47.6)"/><path class="cls-1" d="M155.18,191c-.05.74-.13,1.42-.13,2.09q0,10.66,0,21.32c0,.42,0,.84,0,1.26a2.85,2.85,0,0,0,2.33,2.82,3,3,0,0,0,3.63-1.73,5.73,5.73,0,0,0,.42-2.22q0-11,0-21.95a14.49,14.49,0,0,0-.22-1.74A30.66,30.66,0,0,0,155.18,191Z" transform="translate(-24.11 -47.6)"/><path class="cls-1" d="M117.13,193.18c0-.52-.1-1.05-.18-1.82l-6.2,6.69c0-.19,0,.08,0,.36q0,8.26,0,16.52a7.85,7.85,0,0,0,0,.84,3.19,3.19,0,0,0,3.33,2.81,2.9,2.9,0,0,0,3-2.81,9.2,9.2,0,0,0,0-1.05Q117.13,204,117.13,193.18Z" transform="translate(-24.11 -47.6)"/><path class="cls-1" d="M86,95.09" transform="translate(-24.11 -47.6)"/><path class="cls-1" d="M148.61,190.84c-1.19.13-2.29-.32-3.31.34a2.84,2.84,0,0,0-.16.66q0,9.61,0,19.23a6.15,6.15,0,0,0,.36,1.4h3.22a8.9,8.9,0,0,0,.2-1.34q0-9.4,0-18.81A8.08,8.08,0,0,0,148.61,190.84Z" transform="translate(-24.11 -47.6)"/><path class="cls-1" d="M94.64,205.56H88.76a10.15,10.15,0,0,0-.19,1.4c0,1.46,0,2.92,0,4.39,0,1.32-.06,2.65,0,4a3.19,3.19,0,0,0,2.92,3.25c2,.14,3.39-.94,3.44-3,.07-3.07,0-6.13,0-9.2A2.52,2.52,0,0,0,94.64,205.56Z" transform="translate(-24.11 -47.6)"/><path class="cls-1" d="M123.54,191c-.41,2.09-.38,19.72,0,21.47h2.9c.41-2.07.37-19.69,0-21.47Z" transform="translate(-24.11 -47.6)"/><path class="cls-1" d="M104.4,202.3c-.62.28-1.13.48-1.62.72s-1,.53-1.69.93c0,2.45,0,4.8,0,7.15a8.78,8.78,0,0,0,.17,1.26,4.15,4.15,0,0,0,3.64-.31c0-1.57.07-3.23,0-4.87S105.36,203.9,104.4,202.3Z" transform="translate(-24.11 -47.6)"/><path class="cls-1" d="M96.93,186.5a9.24,9.24,0,0,1-5.4,1.85,9.53,9.53,0,0,1-5.6-1.85H72.37a20.52,20.52,0,0,0,38.28,0Z" transform="translate(-24.11 -47.6)"/><path class="cls-1" d="M199.8,115.2c.14-.16.24-.29.29-.36a17.57,17.57,0,0,0-5-4.66c-.48.46-1,.92-1.48,1.41L190,115.2Z" transform="translate(-24.11 -47.6)"/><path class="cls-1" d="M171.36,115.2a9.11,9.11,0,0,1,2-8.83c2.5-2.53,5-5,7.53-7.55.49-.49,1-1,1.51-1.59-1.55-2.16-4.78-5.25-6.15-5.89-.53.5-1.08,1-1.62,1.56q-3.71,3.69-7.4,7.39c-3.29,3.3-10.54,3.23-13.58-1.56a9.18,9.18,0,0,1,1-11.36c2.53-2.59,5.12-5.13,7.68-7.7.42-.43.79-.91,1.09-1.26l-4.68-4.92c-1.82,1.28-19.32,18.9-20.07,20.21,1.54,1.87,11.32,11.82,21,21.5Z" transform="translate(-24.11 -47.6)"/><path class="cls-1" d="M150.84,115.2,132.3,96.67H117.76L99.22,115.2Z" transform="translate(-24.11 -47.6)"/><path class="cls-1" d="M75.86,105.48a9.31,9.31,0,0,1,3.11,8,9,9,0,0,1-.31,1.67H90.38c10.22-10.17,20.49-20.56,21-21.32L91,73.55a54,54,0,0,0-4.57,4.77C87.07,79,87.53,79.49,88,80c2.21,2.23,4.37,4.51,6.67,6.64a9.32,9.32,0,0,1,3.1,8.26,8.5,8.5,0,0,1-3.07,5.74c-3.44,3-9.43,2.41-12.23-.62-2.42-2.6-5-5-7.53-7.55-.43-.43-.91-.8-1.22-1.07l-6,5.88c.4.44.84,1,1.32,1.44C71.31,101,73.52,103.29,75.86,105.48Z" transform="translate(-24.11 -47.6)"/><path class="cls-1" d="M60.07,115.2c-1.31-1.31-2.65-2.6-4-3.91-.43-.42-.92-.79-1.53-1.32a65.92,65.92,0,0,0-4.6,4.8,3.57,3.57,0,0,0,.33.43Z" transform="translate(-24.11 -47.6)"/><path class="cls-1" d="M133.87,222.53l-10.11.79-9.9-.79H89.18C94.61,229.3,108,234.28,124,234.28c16.39,0,29.55-5,34.89-11.75Z" transform="translate(-24.11 -47.6)"/></svg>